<svg width="287" height="15" viewBox="0 0 287 15" fill="none" xmlns="http://www.w3.org/2000/svg">
<path d="M2 6.49995C2 6.49995 4.61553 12.9999 11.8078 12.9999C19 12.9999 25.5236 1.99998 33.2618 1.99996C41 1.99994 46.884 12.9999 55.942 12.9999C65 12.9999 67.5659 1.99996 76.783 1.99996C86 1.99996 90.1522 12.9999 100.076 12.9999C110 12.9999 111.834 1.99996 120.917 1.99996C130 1.99996 134.921 12.9999 144.21 12.9999C153.5 12.9999 156.603 1.99996 165.051 1.99996C173.5 1.99996 177.189 12.9999 188.345 12.9999C199.5 12.9999 199.871 1.99998 209.186 1.99996C218.5 1.99994 222.958 12.9999 232.479 12.9999C242 12.9999 244 1.99996 253.32 1.99994C262.64 1.99992 269 12.9999 274.5 12.9999C280 13 285 8.50001 285 7.50001" stroke="black" stroke-width="3"/>
</svg>
