<svg width="356" height="174" viewBox="0 0 356 174" fill="none" xmlns="http://www.w3.org/2000/svg">
<rect x="4" y="4" width="348" height="166" rx="36" stroke="black" stroke-width="8"/>
<path d="M116.752 46.584C121.787 49.0587 124.304 51.7893 124.304 54.776C124.304 56.1413 123.664 58.1893 122.384 60.92L87.056 132.6C86.1173 134.477 84.6667 136.013 82.704 137.208C80.8267 138.317 78.864 138.872 76.816 138.872H75.536C73.4027 138.872 71.3547 138.317 69.392 137.208C67.5147 136.013 66.1067 134.477 65.168 132.6L29.84 60.92C28.56 58.1893 27.92 56.1413 27.92 54.776C27.92 51.7893 30.4373 49.0587 35.472 46.584C38.288 45.1333 40.4213 44.408 41.872 44.408C43.408 44.408 44.56 44.5787 45.328 44.92C46.096 45.2613 46.8213 45.8587 47.504 46.712C48.272 47.736 48.9547 48.888 49.552 50.168C50.2347 51.3627 51.8987 54.904 54.544 60.792C57.1893 66.5947 60.0053 72.7813 62.992 79.352C66.064 85.9227 68.9227 92.152 71.568 98.04C74.2987 103.843 75.8347 107.085 76.176 107.768L101.776 51.704C102.459 50.0827 103.056 48.8027 103.568 47.864C105.104 45.56 106.981 44.408 109.2 44.408C111.419 44.408 113.936 45.1333 116.752 46.584ZM215.978 64.12C218.197 68.6427 219.306 73.6773 219.306 79.224C219.306 84.7707 218.197 89.8053 215.978 94.328C213.759 98.7653 210.901 102.307 207.402 104.952C200.319 110.413 192.981 113.144 185.386 113.144H169.386V127.608C169.386 129.571 169.301 131.064 169.13 132.088C169.045 133.027 168.661 134.136 167.978 135.416C166.783 137.72 163.455 138.872 157.994 138.872C152.021 138.872 148.522 137.293 147.498 134.136C146.986 132.685 146.73 130.467 146.73 127.48V56.44C146.73 54.4773 146.773 53.0267 146.858 52.088C147.029 51.064 147.455 49.912 148.138 48.632C149.333 46.328 152.661 45.176 158.122 45.176H185.514C193.023 45.176 200.319 47.9067 207.402 53.368C210.901 56.0133 213.759 59.5973 215.978 64.12ZM185.514 90.488C188.074 90.488 190.591 89.5493 193.066 87.672C195.541 85.7947 196.778 82.9787 196.778 79.224C196.778 75.4693 195.541 72.6533 193.066 70.776C190.591 68.8133 188.031 67.832 185.386 67.832H169.386V90.488H185.514ZM303.509 49.144C304.362 47.608 305.6 46.584 307.221 46.072C308.842 45.56 310.848 45.304 313.237 45.304C315.712 45.304 317.674 45.5173 319.125 45.944C320.661 46.3707 321.77 46.8827 322.453 47.48C323.221 48.0773 323.776 48.9733 324.117 50.168C324.629 51.5333 324.885 53.7093 324.885 56.696V127.736C324.885 129.784 324.8 131.277 324.629 132.216C324.544 133.155 324.16 134.264 323.477 135.544C322.282 137.848 318.954 139 313.493 139C310.165 139 307.861 138.744 306.581 138.232C305.301 137.72 304.234 136.909 303.381 135.8C284.181 110.2 271.552 93.4747 265.493 85.624V127.736C265.493 129.784 265.408 131.277 265.237 132.216C265.152 133.155 264.768 134.264 264.085 135.544C262.89 137.848 259.562 139 254.101 139C248.81 139 245.568 137.848 244.373 135.544C243.69 134.264 243.264 133.112 243.093 132.088C243.008 131.064 242.965 129.571 242.965 127.608V56.184C242.965 52.9413 243.349 50.5947 244.117 49.144C244.97 47.608 246.208 46.584 247.829 46.072C249.45 45.56 251.541 45.304 254.101 45.304C256.661 45.304 258.666 45.56 260.117 46.072C261.653 46.4987 262.72 47.0107 263.317 47.608C263.658 47.864 264.64 48.9733 266.261 50.936C284.266 75.4267 296.298 91.5973 302.357 99.448V56.184C302.357 52.9413 302.741 50.5947 303.509 49.144Z" fill="black"/>
</svg>
